# Blender v2.82 (sub 7) OBJ File: 'chess.blend'
# www.blender.org
mtllib darkwood.mtl
o Queen.001_Sphere.010
v -0.053079 0.119702 -0.091936
v 0.053079 0.119702 -0.091936
v -0.106158 0.119702 -0.000000
v -0.053079 0.119702 0.091936
v 0.053079 0.119702 0.091936
v 0.106158 0.119702 0.000000
v -0.072125 0.050160 -0.124924
v 0.072125 0.050160 -0.124924
v -0.144250 0.050160 -0.000000
v -0.072125 0.050160 0.124924
v 0.072125 0.050160 0.124924
v 0.144250 0.050160 0.000000
v 0.072125 -0.000711 -0.124924
v -0.072125 -0.000711 -0.124924
v -0.144250 -0.000711 -0.000000
v -0.072125 -0.000711 0.124924
v 0.072125 -0.000711 0.124924
v 0.144250 -0.000711 0.000000
v -0.025543 0.379856 -0.044242
v 0.025543 0.379856 -0.044242
v -0.051086 0.379856 -0.000000
v -0.025543 0.379856 0.044242
v 0.025543 0.379856 0.044242
v 0.051086 0.379856 0.000000
v -0.060585 0.392698 -0.104936
v 0.060585 0.392698 -0.104936
v -0.121170 0.392698 -0.000000
v -0.060585 0.392698 0.104936
v 0.060585 0.392698 0.104936
v 0.121170 0.392698 0.000000
v -0.032716 0.412698 -0.056666
v 0.032716 0.412698 -0.056666
v -0.065432 0.412698 -0.000000
v -0.032716 0.412698 0.056666
v 0.032716 0.412698 0.056666
v 0.065432 0.412698 0.000000
v -0.036604 0.487800 -0.063400
v 0.036604 0.487800 -0.063400
v -0.073208 0.487800 -0.000000
v -0.036604 0.487800 0.063400
v 0.036604 0.487800 0.063400
v 0.073208 0.487800 0.000000
v -0.061572 0.598548 -0.106646
v 0.061572 0.598548 -0.106646
v -0.123144 0.598548 -0.000000
v -0.061572 0.598548 0.106646
v 0.061572 0.598548 0.106646
v 0.123144 0.598548 0.000000
v -0.055513 0.607068 -0.096151
v 0.055513 0.607068 -0.096151
v -0.111026 0.607068 -0.000000
v -0.055513 0.607068 0.096151
v 0.055513 0.607068 0.096151
v 0.111026 0.607068 0.000000
v -0.027120 0.581445 -0.046973
v 0.027120 0.581445 -0.046973
v -0.054240 0.581445 -0.000000
v -0.027120 0.581445 0.046973
v 0.027120 0.581445 0.046973
v 0.054240 0.581445 0.000000
v 0.000000 0.655277 0.000000
vt 0.986907 0.383955
vt 0.824382 0.383955
vt 0.824382 0.315551
vt 0.986907 0.315551
vt 0.174284 0.383955
vt 0.011760 0.383955
vt 0.011760 0.315551
vt 0.174284 0.315551
vt 0.336809 0.383955
vt 0.336809 0.315551
vt 0.499333 0.383955
vt 0.499333 0.315551
vt 0.661858 0.383955
vt 0.661858 0.315551
vt 0.824382 0.265513
vt 0.986907 0.265513
vt 0.011760 0.265513
vt 0.174284 0.265513
vt 0.336809 0.265513
vt 0.499333 0.265513
vt 0.661858 0.265513
vt 0.714136 0.133363
vt 0.987659 0.133363
vt 0.919279 0.251802
vt 0.782517 0.251802
vt 0.919279 0.014924
vt 0.782517 0.014924
vt 0.986907 0.639852
vt 0.824382 0.639852
vt 0.174284 0.639852
vt 0.011760 0.639852
vt 0.336809 0.639852
vt 0.499333 0.639852
vt 0.661858 0.639852
vt 0.986907 0.708972
vt 0.824382 0.708972
vt 0.174284 0.708972
vt 0.011760 0.708972
vt 0.336809 0.708972
vt 0.499333 0.708972
vt 0.661858 0.708972
vt 0.986907 0.777063
vt 0.824382 0.777063
vt 0.174284 0.777063
vt 0.011760 0.777063
vt 0.336809 0.777063
vt 0.499333 0.777063
vt 0.661858 0.777063
vt 0.986907 0.850935
vt 0.824382 0.850935
vt 0.174284 0.850935
vt 0.011760 0.850935
vt 0.336809 0.850935
vt 0.499333 0.850935
vt 0.661858 0.850935
vt 0.986907 0.959872
vt 0.824382 0.959872
vt 0.174284 0.959872
vt 0.011760 0.959872
vt 0.336809 0.959872
vt 0.499333 0.959872
vt 0.661858 0.959872
vt 0.986907 0.983746
vt 0.824382 0.983746
vt 0.174284 0.983746
vt 0.011760 0.983746
vt 0.336809 0.983746
vt 0.499333 0.983746
vt 0.661858 0.983746
vt 0.228746 0.246704
vt 0.095497 0.246704
vt 0.134504 0.178382
vt 0.192570 0.179345
vt 0.014603 0.127178
vt 0.104185 0.128633
vt 0.099294 0.009813
vt 0.136349 0.079880
vt 0.234124 0.013808
vt 0.194838 0.081231
vt 0.309743 0.132703
vt 0.224466 0.131760
vt 0.164485 0.129872
vn -0.4657 0.3636 -0.8067
vn 0.4657 0.3636 -0.8067
vn 0.4865 0.2308 -0.8426
vn -0.4865 0.2308 -0.8426
vn -0.9315 0.3636 0.0000
vn -0.9730 0.2308 0.0000
vn -0.4657 0.3636 0.8067
vn -0.4865 0.2308 0.8426
vn 0.4657 0.3636 0.8067
vn 0.4865 0.2308 0.8426
vn 0.9315 0.3636 0.0000
vn 0.9730 0.2308 0.0000
vn 0.3962 -0.6100 -0.6862
vn -0.3962 -0.6100 -0.6862
vn -0.7924 -0.6100 0.0000
vn -0.3962 -0.6100 0.6862
vn 0.3962 -0.6100 0.6862
vn 0.7924 -0.6100 0.0000
vn -0.3597 -0.6945 -0.6231
vn 0.3597 -0.6945 -0.6231
vn -0.7194 -0.6945 0.0000
vn -0.3597 -0.6945 0.6231
vn 0.3597 -0.6945 0.6231
vn 0.7194 -0.6945 0.0000
vn -0.4989 -0.0642 -0.8642
vn 0.4989 -0.0642 -0.8642
vn -0.9979 -0.0642 0.0000
vn -0.4989 -0.0642 0.8642
vn 0.4989 -0.0642 0.8642
vn 0.9979 -0.0642 0.0000
vn -0.3820 0.6453 -0.6616
vn 0.3820 0.6453 -0.6616
vn -0.7639 0.6453 0.0000
vn -0.3820 0.6453 0.6616
vn 0.3820 0.6453 0.6616
vn 0.7639 0.6453 0.0000
vn -0.4808 -0.2741 -0.8329
vn 0.4808 -0.2741 -0.8329
vn -0.9617 -0.2741 0.0000
vn -0.4808 -0.2741 0.8329
vn 0.4808 -0.2741 0.8329
vn 0.9617 -0.2741 0.0000
vn -0.4873 0.2236 -0.8441
vn 0.4873 0.2236 -0.8441
vn -0.9747 0.2236 0.0000
vn -0.4873 0.2236 0.8441
vn 0.4873 0.2236 0.8441
vn 0.9747 0.2236 0.0000
vn -0.1245 0.9685 -0.2157
vn 0.1245 0.9685 -0.2157
vn -0.2491 0.9685 0.0000
vn -0.1245 0.9685 0.2157
vn 0.1245 0.9685 0.2157
vn 0.2491 0.9685 0.0000
vn -0.0221 0.9990 -0.0382
vn 0.0221 0.9990 -0.0382
vn -0.0441 0.9990 0.0000
vn -0.0221 0.9990 0.0382
vn 0.0221 0.9990 0.0382
vn 0.0441 0.9990 0.0000
vn 0.0000 1.0000 0.0000
usemtl DarkWood
s 1
f 1/1/1 2/2/2 8/3/3 7/4/4
f 3/5/5 1/6/1 7/7/4 9/8/6
f 4/9/7 3/5/5 9/8/6 10/10/8
f 5/11/9 4/9/7 10/10/8 11/12/10
f 6/13/11 5/11/9 11/12/10 12/14/12
f 2/2/2 6/13/11 12/14/12 8/3/3
f 7/4/4 8/3/3 13/15/13 14/16/14
f 9/8/6 7/7/4 14/17/14 15/18/15
f 10/10/8 9/8/6 15/18/15 16/19/16
f 11/12/10 10/10/8 16/19/16 17/20/17
f 12/14/12 11/12/10 17/20/17 18/21/18
f 8/3/3 12/14/12 18/21/18 13/15/13
f 15/22/15 18/23/18 17/24/17 16/25/16
f 13/26/13 18/23/18 15/22/15 14/27/14
f 2/2/2 1/1/1 19/28/19 20/29/20
f 1/6/1 3/5/5 21/30/21 19/31/19
f 3/5/5 4/9/7 22/32/22 21/30/21
f 4/9/7 5/11/9 23/33/23 22/32/22
f 5/11/9 6/13/11 24/34/24 23/33/23
f 6/13/11 2/2/2 20/29/20 24/34/24
f 20/29/20 19/28/19 25/35/25 26/36/26
f 19/31/19 21/30/21 27/37/27 25/38/25
f 21/30/21 22/32/22 28/39/28 27/37/27
f 22/32/22 23/33/23 29/40/29 28/39/28
f 23/33/23 24/34/24 30/41/30 29/40/29
f 24/34/24 20/29/20 26/36/26 30/41/30
f 26/36/26 25/35/25 31/42/31 32/43/32
f 25/38/25 27/37/27 33/44/33 31/45/31
f 27/37/27 28/39/28 34/46/34 33/44/33
f 28/39/28 29/40/29 35/47/35 34/46/34
f 29/40/29 30/41/30 36/48/36 35/47/35
f 30/41/30 26/36/26 32/43/32 36/48/36
f 32/43/32 31/42/31 37/49/37 38/50/38
f 31/45/31 33/44/33 39/51/39 37/52/37
f 33/44/33 34/46/34 40/53/40 39/51/39
f 34/46/34 35/47/35 41/54/41 40/53/40
f 35/47/35 36/48/36 42/55/42 41/54/41
f 36/48/36 32/43/32 38/50/38 42/55/42
f 38/50/38 37/49/37 43/56/43 44/57/44
f 37/52/37 39/51/39 45/58/45 43/59/43
f 39/51/39 40/53/40 46/60/46 45/58/45
f 40/53/40 41/54/41 47/61/47 46/60/46
f 41/54/41 42/55/42 48/62/48 47/61/47
f 42/55/42 38/50/38 44/57/44 48/62/48
f 44/57/44 43/56/43 49/63/49 50/64/50
f 43/59/43 45/58/45 51/65/51 49/66/49
f 45/58/45 46/60/46 52/67/52 51/65/51
f 46/60/46 47/61/47 53/68/53 52/67/52
f 47/61/47 48/62/48 54/69/54 53/68/53
f 48/62/48 44/57/44 50/64/50 54/69/54
f 50/70/50 49/71/49 55/72/55 56/73/56
f 49/71/49 51/74/51 57/75/57 55/72/55
f 51/74/51 52/76/52 58/77/58 57/75/57
f 52/76/52 53/78/53 59/79/59 58/77/58
f 53/78/53 54/80/54 60/81/60 59/79/59
f 54/80/54 50/70/50 56/73/56 60/81/60
f 56/73/56 55/72/55 61/82/61
f 55/72/55 57/75/57 61/82/61
f 57/75/57 58/77/58 61/82/61
f 58/77/58 59/79/59 61/82/61
f 59/79/59 60/81/60 61/82/61
f 60/81/60 56/73/56 61/82/61
